<svg xmlns="http://www.w3.org/2000/svg" xmlns:xlink="http://www.w3.org/1999/xlink" width="112.5" zoomAndPan="magnify" viewBox="0 0 112.5 37.5" height="37.5" preserveAspectRatio="xMidYMid meet" version="1.0"><defs><g><g id="id1"/></g><clipPath id="id2"><path d="M 7 8.375 L 18 8.375 L 18 25 L 7 25 Z M 7 8.375 " clip-rule="nonzero"/></clipPath><clipPath id="id3"><path d="M 7 8.375 L 14 8.375 L 14 25 L 7 25 Z M 7 8.375 " clip-rule="nonzero"/></clipPath><clipPath id="id4"><path d="M 0.492188 27 L 15 27 L 15 34 L 0.492188 34 Z M 0.492188 27 " clip-rule="nonzero"/></clipPath><clipPath id="id5"><path d="M 13 21 L 22 21 L 22 34.394531 L 13 34.394531 Z M 13 21 " clip-rule="nonzero"/></clipPath><clipPath id="id6"><path d="M 11 8.375 L 18 8.375 L 18 21 L 11 21 Z M 11 8.375 " clip-rule="nonzero"/></clipPath><clipPath id="id7"><path d="M 14 26 L 18 26 L 18 34.394531 L 14 34.394531 Z M 14 26 " clip-rule="nonzero"/></clipPath><clipPath id="id8"><path d="M 15 23 L 22 23 L 22 34.394531 L 15 34.394531 Z M 15 23 " clip-rule="nonzero"/></clipPath><clipPath id="id9"><path d="M 0.492188 9 L 29 9 L 29 32 L 0.492188 32 Z M 0.492188 9 " clip-rule="nonzero"/></clipPath></defs><g clip-path="url(#id2)"><path fill="rgb(96.469116%, 69.799805%, 1.959229%)" d="M 17.988281 19.648438 C 17.628906 19.25 17.265625 18.859375 16.902344 18.476562 C 16.441406 17.992188 15.96875 17.492188 15.53125 16.988281 C 14.90625 16.265625 14.128906 15.292969 13.648438 14.136719 C 13.511719 13.804688 13.0625 12.652344 13.070312 11.742188 C 13.070312 11.742188 13.027344 11.226562 13.191406 10.699219 C 13.355469 10.171875 13.597656 9.789062 13.851562 9.390625 L 14.511719 8.375 L 13.328125 8.664062 C 9.976562 9.480469 7.875 12.25 7.84375 15.890625 C 7.828125 17.785156 8.410156 19.679688 9.480469 21.222656 C 10.082031 22.09375 10.914062 22.996094 11.800781 23.953125 C 11.820312 23.972656 11.839844 23.996094 11.859375 24.015625 C 12.90625 23.390625 13.980469 22.6875 15.0625 21.917969 C 16.105469 21.171875 17.085938 20.410156 17.988281 19.648438 Z M 17.988281 19.648438 " fill-opacity="1" fill-rule="nonzero"/></g><g clip-path="url(#id3)"><path fill="rgb(83.918762%, 60.389709%, 0.779724%)" d="M 12.9375 23.539062 C 11.992188 22.375 10.140625 20.054688 9.910156 19.515625 C 6.457031 11.5 11.847656 9.125 13.828125 8.542969 L 13.503906 8.621094 C 12.335938 8.90625 11.289062 9.410156 10.421875 10.097656 C 8.804688 11.429688 7.867188 13.464844 7.84375 15.890625 C 7.828125 17.785156 8.410156 19.679688 9.480469 21.222656 C 10.082031 22.09375 10.914062 22.996094 11.800781 23.953125 C 11.820312 23.972656 11.839844 23.996094 11.859375 24.015625 C 11.953125 23.960938 12.089844 23.953125 12.246094 23.96875 C 12.453125 23.84375 12.679688 23.703125 12.933594 23.542969 Z M 12.9375 23.539062 " fill-opacity="1" fill-rule="nonzero"/></g><path fill="rgb(96.469116%, 69.799805%, 1.959229%)" d="M 6.003906 17.246094 L 5.863281 16.191406 L 5.160156 16.996094 C 3.988281 18.335938 3.390625 19.898438 3.375 21.636719 C 3.371094 21.699219 3.375 21.757812 3.375 21.820312 C 3.398438 23.210938 3.785156 24.609375 4.414062 25.933594 C 4.074219 26.015625 3.636719 26.085938 3.085938 26.058594 C 1.023438 25.957031 2.667969 22.949219 3.214844 22.039062 L 2.585938 22.882812 C 1.359375 24.601562 0.898438 26.015625 1.464844 26.796875 C 2.410156 28.097656 5.949219 27.269531 10.226562 24.976562 C 9.164062 23.835938 8.171875 22.738281 7.421875 21.429688 C 6.65625 19.996094 6.191406 18.625 6.003906 17.246094 Z M 6.003906 17.246094 " fill-opacity="1" fill-rule="nonzero"/><path fill="rgb(96.469116%, 69.799805%, 1.959229%)" d="M 24 10.660156 C 23.476562 9.941406 22.160156 9.875 20.367188 10.34375 L 19.613281 10.585938 L 19.609375 10.609375 C 19.609375 10.609375 24.652344 9.683594 22.152344 13.371094 C 21.265625 12.332031 20.277344 11.414062 19.292969 10.675781 C 19.246094 10.640625 19.203125 10.605469 19.15625 10.574219 C 19.039062 10.488281 18.921875 10.402344 18.804688 10.324219 C 18.769531 10.296875 18.730469 10.273438 18.691406 10.246094 C 18.570312 10.167969 18.433594 10.085938 18.285156 10.003906 C 17.730469 9.710938 16.992188 9.453125 16.3125 9.648438 C 15.964844 9.75 15.488281 10.015625 15.191406 10.714844 C 15.050781 11.039062 14.980469 11.394531 14.976562 11.773438 C 14.964844 12.960938 15.636719 14.078125 16.035156 14.640625 C 16.785156 15.6875 17.667969 16.632812 18.519531 17.542969 C 18.796875 17.839844 19.078125 18.140625 19.351562 18.445312 C 22.984375 15.101562 24.953125 11.976562 24 10.660156 Z M 24 10.660156 " fill-opacity="1" fill-rule="nonzero"/><g clip-path="url(#id4)"><path fill="rgb(96.469116%, 69.799805%, 1.959229%)" d="M 0.5 30.164062 C 1.46875 31.121094 3.484375 31.78125 7.683594 30.421875 C 8.417969 31.152344 9.1875 31.792969 9.945312 32.316406 C 11.875 33.644531 12.90625 33.226562 13.433594 32.644531 C 13.847656 32.1875 14.0625 31.628906 14.066406 30.984375 C 14.078125 29.875 13.464844 28.824219 13.097656 28.296875 C 12.832031 27.914062 12.546875 27.546875 12.25 27.1875 C 7.015625 30.132812 2.390625 31.351562 0.5 30.164062 Z M 0.5 30.164062 " fill-opacity="1" fill-rule="nonzero"/></g><g clip-path="url(#id5)"><path fill="rgb(96.469116%, 69.799805%, 1.959229%)" d="M 13.828125 26.257812 C 15.023438 27.746094 15.957031 29.324219 15.941406 30.933594 C 15.933594 31.777344 15.675781 32.578125 15.152344 33.386719 L 14.5 34.394531 L 15.675781 34.113281 C 18.996094 33.320312 21.164062 30.476562 21.195312 26.871094 C 21.207031 25.476562 20.882812 24.078125 20.261719 22.828125 C 20.117188 22.53125 19.957031 22.25 19.785156 21.972656 C 18.839844 22.761719 17.828125 23.546875 16.757812 24.3125 C 15.777344 25.011719 14.796875 25.660156 13.828125 26.257812 Z M 13.828125 26.257812 " fill-opacity="1" fill-rule="nonzero"/></g><path fill="rgb(96.469116%, 69.799805%, 1.959229%)" d="M 26.972656 9.960938 C 27.058594 10.042969 27.136719 10.125 27.203125 10.21875 C 28.574219 12.109375 25.996094 16.394531 21.195312 20.746094 C 21.261719 20.847656 21.328125 20.949219 21.390625 21.050781 C 22.195312 22.441406 22.703125 23.792969 22.941406 25.1875 L 23.121094 26.25 L 23.796875 25.410156 C 24.859375 24.089844 25.402344 22.589844 25.414062 20.949219 C 25.421875 20.113281 25.289062 19.273438 25.042969 18.449219 C 29.480469 12.683594 28.28125 10.667969 26.972656 9.960938 Z M 26.972656 9.960938 " fill-opacity="1" fill-rule="nonzero"/><g clip-path="url(#id6)"><path fill="rgb(97.24884%, 73.728943%, 13.328552%)" d="M 16.902344 18.476562 C 16.441406 17.992188 15.96875 17.488281 15.527344 16.984375 C 14.90625 16.265625 14.128906 15.292969 13.648438 14.136719 C 13.511719 13.804688 13.0625 12.648438 13.070312 11.742188 C 13.070312 11.742188 13.027344 11.226562 13.191406 10.695312 C 13.355469 10.167969 13.59375 9.785156 13.851562 9.390625 L 14.511719 8.375 C 14.511719 8.375 8.296875 11.300781 13.644531 17.628906 C 14.96875 19.191406 15.851562 20.226562 16.4375 20.894531 C 16.976562 20.480469 17.492188 20.0625 17.988281 19.648438 C 17.628906 19.25 17.265625 18.859375 16.902344 18.476562 Z M 16.902344 18.476562 " fill-opacity="1" fill-rule="nonzero"/></g><g clip-path="url(#id7)"><path fill="rgb(83.918762%, 60.389709%, 0.779724%)" d="M 15.386719 28.632812 C 15.527344 28.964844 15.972656 30.117188 15.964844 31.027344 C 15.964844 31.027344 15.9375 31.542969 15.773438 32.074219 C 15.609375 32.601562 15.441406 32.980469 15.183594 33.378906 L 14.523438 34.394531 C 14.523438 34.394531 20.058594 31.789062 16.1875 26.179688 C 15.671875 26.511719 15.089844 26.875 14.53125 27.199219 C 14.835938 27.644531 15.167969 28.101562 15.386719 28.632812 Z M 15.386719 28.632812 " fill-opacity="1" fill-rule="nonzero"/></g><g clip-path="url(#id8)"><path fill="rgb(97.24884%, 73.728943%, 13.328552%)" d="M 19.382812 23.878906 C 22.292969 31.394531 17.136719 33.660156 15.207031 34.226562 L 15.707031 34.105469 C 19.058594 33.289062 21.160156 30.519531 21.191406 26.882812 C 21.203125 25.5625 20.925781 24.25 20.398438 23.050781 C 20.390625 23.058594 20.382812 23.066406 20.375 23.074219 C 20.058594 23.339844 19.726562 23.609375 19.382812 23.878906 Z M 19.382812 23.878906 " fill-opacity="1" fill-rule="nonzero"/></g><path fill="rgb(83.918762%, 60.389709%, 0.779724%)" d="M 15.191406 10.714844 C 15.050781 11.042969 14.980469 11.398438 14.976562 11.773438 C 14.964844 12.964844 15.636719 14.082031 16.035156 14.644531 C 16.785156 15.691406 17.667969 16.632812 18.519531 17.546875 C 18.796875 17.84375 19.078125 18.140625 19.351562 18.445312 C 19.785156 18.050781 20.1875 17.660156 20.570312 17.269531 C 20.378906 17.117188 20.175781 16.957031 19.957031 16.78125 C 14.003906 12.066406 16.3125 9.652344 16.3125 9.652344 C 15.964844 9.75 15.488281 10.015625 15.191406 10.714844 Z M 15.191406 10.714844 " fill-opacity="1" fill-rule="nonzero"/><path fill="rgb(83.918762%, 60.389709%, 0.779724%)" d="M 21.988281 20.007812 C 21.730469 20.253906 21.464844 20.5 21.195312 20.746094 C 21.261719 20.847656 21.328125 20.949219 21.390625 21.050781 C 22.195312 22.441406 22.703125 23.792969 22.941406 25.1875 L 23.121094 26.246094 C 23.121094 26.246094 24.421875 22.675781 21.988281 20.007812 Z M 21.988281 20.007812 " fill-opacity="1" fill-rule="nonzero"/><path fill="rgb(97.24884%, 73.728943%, 13.328552%)" d="M 7.421875 21.425781 C 6.65625 19.996094 6.191406 18.625 6.003906 17.246094 L 5.972656 17.011719 L 5.839844 16.21875 L 5.765625 16.300781 C 5.398438 16.953125 3.820312 20.46875 8.976562 25.613281 C 9.097656 25.496094 9.566406 25.144531 10.050781 24.785156 C 9.054688 23.714844 8.128906 22.664062 7.421875 21.425781 Z M 7.421875 21.425781 " fill-opacity="1" fill-rule="nonzero"/><g clip-path="url(#id9)"><path fill="rgb(96.469116%, 69.799805%, 1.959229%)" d="M 26.972656 9.960938 C 27.058594 10.042969 27.136719 10.125 27.203125 10.21875 C 28.574219 12.109375 25.996094 16.394531 21.195312 20.746094 C 21.195312 20.746094 20.511719 21.34375 19.785156 21.972656 C 18.839844 22.761719 17.828125 23.546875 16.757812 24.3125 C 15.777344 25.011719 14.796875 25.660156 13.832031 26.257812 C 13.832031 26.257812 13.089844 26.691406 12.25 27.1875 C 7.015625 30.132812 2.390625 31.351562 0.5 30.164062 C 1.378906 31.03125 3.125 31.660156 6.589844 30.746094 C 8.914062 30.007812 11.03125 29.089844 12.941406 28.085938 C 13.75 27.636719 14.535156 27.199219 14.535156 27.199219 C 16.832031 25.855469 18.78125 24.414062 20.375 23.074219 C 21.800781 21.8125 21.800781 21.8125 21.800781 21.8125 C 24.007812 19.769531 25.257812 18.160156 25.511719 17.820312 C 29.390625 12.539062 28.234375 10.640625 26.972656 9.960938 Z M 26.972656 9.960938 " fill-opacity="1" fill-rule="nonzero"/></g><path fill="rgb(97.24884%, 73.728943%, 13.328552%)" d="M 11.882812 28.617188 C 14.070312 31.375 12.984375 32.875 12.816406 33.082031 C 13.074219 32.980469 13.277344 32.820312 13.433594 32.644531 C 13.847656 32.1875 14.0625 31.628906 14.066406 30.984375 C 14.078125 29.875 13.464844 28.828125 13.097656 28.300781 C 13.046875 28.226562 12.992188 28.15625 12.941406 28.085938 C 12.597656 28.265625 12.242188 28.441406 11.882812 28.617188 Z M 11.882812 28.617188 " fill-opacity="1" fill-rule="nonzero"/><path fill="rgb(83.918762%, 60.389709%, 0.779724%)" d="M 28.160156 11.835938 C 28.246094 13.054688 27.632812 14.929688 25.511719 17.820312 C 25.257812 18.160156 24.007812 19.769531 21.800781 21.8125 C 21.800781 21.8125 21.800781 21.8125 20.375 23.070312 C 18.785156 24.414062 16.832031 25.855469 14.535156 27.199219 C 14.535156 27.199219 13.75 27.636719 12.941406 28.082031 C 11.03125 29.085938 8.910156 30.003906 6.589844 30.746094 C 4.539062 31.285156 3.089844 31.285156 2.066406 31.015625 C 3.859375 31.53125 5.5 31.199219 6.636719 30.898438 C 8.816406 30.207031 10.960938 29.304688 13.019531 28.222656 L 14.617188 27.335938 C 16.675781 26.132812 18.644531 24.738281 20.484375 23.191406 L 21.910156 21.929688 C 24.144531 19.863281 25.410156 18.222656 25.644531 17.914062 C 27.527344 15.347656 28.289062 13.3125 28.160156 11.835938 Z M 28.160156 11.835938 " fill-opacity="1" fill-rule="nonzero"/><path fill="rgb(96.469116%, 69.799805%, 1.959229%)" d="M 24 10.660156 C 23.476562 9.941406 22.160156 9.875 20.367188 10.34375 L 19.613281 10.585938 L 19.609375 10.609375 C 19.609375 10.609375 24.578125 9.699219 22.207031 13.289062 C 21.671875 14.152344 20.566406 15.695312 18.574219 17.601562 C 18.574219 17.601562 18.570312 17.605469 18.570312 17.609375 L 17.230469 18.824219 C 16.453125 19.492188 15.574219 20.199219 14.582031 20.921875 C 13.332031 21.828125 12.167969 22.578125 11.101562 23.191406 C 10.730469 23.429688 9.421875 24.097656 9.421875 24.097656 C 6.054688 25.785156 4.019531 26.007812 4.019531 26.007812 C 3.753906 26.050781 3.445312 26.074219 3.085938 26.058594 C 1.023438 25.957031 2.667969 22.949219 3.214844 22.035156 L 2.585938 22.882812 C 1.359375 24.601562 0.898438 26.015625 1.464844 26.796875 C 2.410156 28.097656 5.949219 27.269531 10.226562 24.976562 C 11.027344 24.503906 11.859375 24.015625 11.859375 24.015625 C 12.90625 23.390625 13.980469 22.6875 15.0625 21.917969 C 16.105469 21.171875 17.085938 20.410156 17.988281 19.648438 L 18.460938 19.234375 C 18.925781 18.890625 19.351562 18.445312 19.351562 18.445312 C 22.984375 15.101562 24.953125 11.976562 24 10.660156 Z M 24 10.660156 " fill-opacity="1" fill-rule="nonzero"/><path fill="rgb(83.918762%, 60.389709%, 0.779724%)" d="M 24.089844 10.613281 C 23.792969 10.199219 23.25 10.070312 22.507812 10.050781 C 23.203125 10.074219 23.71875 10.273438 24 10.660156 C 24.957031 11.976562 22.984375 15.101562 19.355469 18.445312 C 19.355469 18.445312 18.925781 18.890625 18.460938 19.234375 L 17.988281 19.648438 C 17.085938 20.410156 16.105469 21.171875 15.0625 21.917969 C 13.980469 22.6875 12.90625 23.390625 11.859375 24.015625 C 11.859375 24.015625 11.03125 24.503906 10.226562 24.976562 C 5.949219 27.269531 2.410156 28.097656 1.464844 26.796875 C 0.898438 26.019531 1.359375 24.601562 2.585938 22.882812 C 1.257812 24.746094 0.8125 26.035156 1.410156 26.855469 C 1.738281 27.308594 2.265625 27.574219 3.121094 27.574219 C 4.796875 27.574219 7.351562 26.703125 10.3125 25.113281 L 11.941406 24.152344 C 13.019531 23.511719 14.101562 22.800781 15.15625 22.046875 C 16.175781 21.320312 17.164062 20.550781 18.097656 19.769531 L 18.558594 19.363281 C 19.027344 19.015625 19.453125 18.578125 19.464844 18.566406 C 23.335938 14.996094 25.085938 11.980469 24.089844 10.613281 Z M 24.089844 10.613281 " fill-opacity="1" fill-rule="nonzero"/><g fill="rgb(0%, 0%, 0%)" fill-opacity="1"><g transform="translate(35.089132, 30.918362)"><g><path d="M 1.453125 -18.125 L 6.234375 -18.125 L 6.234375 -3.65625 L 15.125 -3.65625 L 15.125 0 L 1.453125 0 Z M 1.453125 -18.125 "/></g></g></g><g fill="rgb(0%, 0%, 0%)" fill-opacity="1"><g transform="translate(50.888847, 30.918362)"><g><path d="M 10.015625 0.1875 C 6.867188 0.1875 4.550781 -0.773438 3.0625 -2.703125 C 1.882812 -4.203125 1.296875 -6.109375 1.296875 -8.421875 L 1.296875 -18.125 L 6.078125 -18.125 L 6.078125 -8.328125 C 6.078125 -5.085938 7.390625 -3.46875 10.015625 -3.46875 C 12.566406 -3.46875 13.84375 -5.085938 13.84375 -8.328125 L 13.84375 -18.125 L 18.75 -18.125 L 18.75 -8.421875 C 18.75 -6.085938 18.160156 -4.179688 16.984375 -2.703125 C 15.453125 -0.773438 13.128906 0.1875 10.015625 0.1875 Z M 10.015625 0.1875 "/></g></g></g><g fill="rgb(0%, 0%, 0%)" fill-opacity="1"><g transform="translate(70.932799, 30.918362)"><g><path d="M 6.234375 -11.03125 L 6.234375 0 L 1.453125 0 L 1.453125 -18.125 L 6.8125 -18.125 L 13.96875 -7.375 L 13.96875 -18.125 L 18.75 -18.125 L 18.75 0 L 13.515625 0 Z M 6.234375 -11.03125 "/></g></g></g><g fill="rgb(0%, 0%, 0%)" fill-opacity="1"><g transform="translate(91.131648, 30.918362)"><g><path d="M 19.296875 0 L 14.25 0 L 12.984375 -3.6875 L 6.53125 -3.6875 L 5.265625 0 L 0.21875 0 L 6.171875 -18.125 L 13.359375 -18.125 Z M 12.171875 -7.4375 L 9.765625 -14.875 L 7.34375 -7.4375 Z M 12.171875 -7.4375 "/></g></g></g></svg>